<svg id="Layer_1" data-name="Layer 1" xmlns="http://www.w3.org/2000/svg" viewBox="0 0 1024 769"><defs><style>.cls-1{fill:#ffca00;}.cls-2{fill:#b5ca2d;opacity:0.79;}.cls-3{fill:#403200;}.cls-4{fill:#ffdf66;}.cls-5{fill:#ffd533;}.cls-6{fill:#b3a366;}</style></defs><title>EAMAIL-food-exportable</title><path class="cls-1" d="M119.86,408c20.24-2.89,95.4,20.24,150.33,43.36C374,495.06,539,567,767.43,335.73c33.32-33.74,63.6-46.26,69.38-63.6,8.67-26,17.35-104.07,2.89-127.2-2.89-23.13,11.56-23.13,26-31.8S891.74,90,900.42,90c11.56,0,26,23.13,20.24,40.47-7.54,22.62-28.91,75.16-17.35,161.89,83.84,306.44-546.39,584-800.79,164.78C93.84,436.91,119.86,408,119.86,408Z"/><path class="cls-2" d="M836.81,272.13c8.67-26,17.35-104.07,2.89-127.2-2.89-23.13,11.56-23.13,26-31.8S891.74,90,900.42,90c11.56,0,26,23.13,20.24,40.47-7.54,22.62-28.91,75.16-17.35,161.89C877.29,280.8,891.74,254.78,836.81,272.13Z"/><path class="cls-3" d="M100.75,449.48c-1.12-21.24,4.66-29.91,19.12-41.48C122.75,422.46,114.08,442.69,100.75,449.48Z"/><path class="cls-4" d="M238.39,480.28c338.24,164.78,558-112.75,563.73-153.22C741.41,379.09,582.41,610.37,238.39,480.28Z"/><path class="cls-5" d="M119.86,434c471.22,370,702.5-83.84,708.28-124.31C767.43,361.75,596.87,691.32,119.86,434Z"/><path class="cls-3" d="M109.61,423.79c13.15,7.34,71,33.36,88.31,36.25C183.46,454.26,122.75,428.24,109.61,423.79Z"/><path class="cls-3" d="M810.8,318.38c8.47-5.95,12.71-9.91,11.3-13.88C816.44,304.51,813.62,310.45,810.8,318.38Z"/><path class="cls-3" d="M856.71,280.28c10.16,2,18.69,4.29,20.57.53C873.38,276.73,864.39,276.83,856.71,280.28Z"/><path class="cls-3" d="M553.5,517.86c123-10,242.84-150.33,248.62-190.8C764.54,373.31,727,465.82,553.5,517.86Z"/><path class="cls-3" d="M238.39,480.28C302,515,403.17,558.33,515.92,526.53,423.41,541,348.25,529.42,238.39,480.28Z"/><path class="cls-6" d="M883.07,144.93c38.68,5.53,46.26-20.24,34.47-40.18-.14-.27-.27-.56-.41-.83s-.16-.3-.24-.43C912.55,95.67,906.13,90,900.42,90c-8.67,0-20.24,14.45-34.69,23.13s-28.91,8.67-26,31.8c0,2.89,2.57,5,3.55,8.14h0S842.6,139.15,883.07,144.93Z"/></svg>