<svg id="Layer_1" data-name="Layer 1" xmlns="http://www.w3.org/2000/svg" viewBox="0 0 768 1024"><defs><style>.cls-1{fill:#ffe88f;}.cls-2{fill:#ffd329;}.cls-3{fill:#fb87a8;}.cls-4{fill:#ffb34a;}.cls-5{fill:#b1dcff;}.cls-6{fill:#fff8b1;}.cls-7{fill:#9b82e7;}</style></defs><title>EAMAIL-food-exportable</title><path class="cls-1" d="M647,824c19.42-14.86,4.88-338-.51-345.23a1.7,1.7,0,0,1-.49.23c-78-6-132-39-172-58-28-13.29-110-30.61-148.9-37S248,348,189.16,343.16C145.38,339.56,109,303,108,343c-1.48,59.26,16.53,63.86-.16,106.16s.16,96.41-5.56,126.9c-8.34,44.41,19,79,2.78,103.63a13.24,13.24,0,0,1-3.21,3.3C237.7,734.42,627.58,838.86,647,824Z"/><path class="cls-2" d="M121,335s37.09,10.21,69,20c20.31,6.23,32.84,4.07,129,42,27.9,11,108,17.17,131,24,22.49,6.69,102,48.41,125.45,53.25,43,8.87,60.55,8.75,71,3.52a1.7,1.7,0,0,1-.49.23c-78-6-132-39-172-58-28-13.29-110-30.61-148.9-37S248,347,189.16,342.16C145.38,338.56,109,302,108,342c-1.48,59.26,16.53,63.86-.16,106.16s.16,96.41-5.56,126.9c-8.34,44.41,19,79,2.78,103.63a13.24,13.24,0,0,1-3.21,3.3c14.43-7.61,4.27-79.94,10.15-102,4-15-4.39-48.15-6-77-1.69-30.35,15.06-43.71,18-83,1.62-21.67-7.87-29-3-53C123.55,354.45,117.29,348.13,121,335Z"/><path class="cls-3" d="M58.41,663.35c-8.94-14.88-2.47-404.1-.54-404.1,14.71,0,546.12,169.32,588.6,219.49l0,0c7.58-4.81.43-74.34-51.49-101.77-45-27-92.07-90.91-130-118-56-40-122-115-180-122-40.21-4.85-216.1,81.63-238.35,107-15.2,17.33,13.48,61.62,0,120.55-11.13,48.64,4.13,75.05-5.56,124.78-11.13,57.1-.29,79.84,5.56,99.4C60.56,635.27,49,668.24,55,679.69c5,9.54,34.92,12.19,46.86,3.3C76.14,673.25,60.13,666.22,58.41,663.35Z"/><path class="cls-3" d="M105.06,679.69c16.17-24.59-11.13-59.22-2.78-103.63,5.73-30.48-11.13-84.6,5.56-126.9s-1.32-46.9.16-106.16c1-40,37.38-3.44,81.16.16C248,348,286.16,377.7,325.1,384S446,407.71,474,421c40,19,94,52,172,58a1.7,1.7,0,0,0,.49-.23l0,0C604,428.57,72.58,259.25,57.87,259.25c-1.93,0-8.4,389.22.54,404.1,1.73,2.87,17.73,9.91,43.44,19.64A13.24,13.24,0,0,0,105.06,679.69Z"/><path class="cls-3" d="M90,474c17,17,149.33,39.18,173.82,52.32C321,557,426,592,482,600c34.1,4.87,122.86,50.1,172.93,50.1,2.78,0,2.78,44.5,0,47.28C570,686,539.8,648.17,500.86,642.61,470.07,638.21,374,598,328,593c-39.59-4.3-86-39-132-47-46.91-8.16-63-21-107-17C70.42,530.69,70.63,454.63,90,474Z"/><rect class="cls-4" x="90" y="251" width="6" height="29" transform="translate(-155.58 133.79) rotate(-42.78)"/><rect class="cls-5" x="165" y="214" width="6" height="29" transform="translate(90.52 -44.33) rotate(20.47)"/><rect class="cls-5" x="180" y="287" width="6" height="29" transform="translate(-109.4 498.72) rotate(-92.74)"/><rect class="cls-6" x="72" y="358" width="6" height="29" transform="translate(-0.1 744.98) rotate(-157.22)"/><rect class="cls-7" x="68" y="449" width="6" height="29" transform="translate(-306.95 185.96) rotate(-45)"/><rect class="cls-5" x="58" y="508" width="6" height="29" transform="translate(-464.98 531.27) rotate(-84.3)"/><rect class="cls-6" x="77" y="586" width="6" height="29" transform="translate(-162.37 45.29) rotate(-16)"/><rect class="cls-7" x="241.5" y="232.5" width="6" height="29" transform="translate(491.5 2.5) rotate(90)"/><rect class="cls-5" x="297" y="300" width="6" height="29" transform="translate(-133.79 287.42) rotate(-42.78)"/><rect class="cls-4" x="265" y="164" width="6" height="29" transform="translate(-49.94 229.51) rotate(-42.78)"/><rect class="cls-6" x="427" y="258" width="6" height="29" transform="translate(551.78 -221.79) rotate(71.48)"/><rect class="cls-5" x="349" y="235" width="6" height="29" transform="translate(15.07 -20) rotate(3.33)"/><rect class="cls-7" x="363" y="347" width="6" height="29"/><rect class="cls-4" x="438" y="344" width="6" height="29" transform="translate(315.14 -195.72) rotate(38.1)"/><rect class="cls-5" x="511" y="385" width="6" height="29" transform="matrix(-0.1, -1, 1, -0.1, 167.07, 950.35)"/><rect class="cls-5" x="501" y="314" width="6" height="29" transform="translate(-76.96 484.75) rotate(-48.15)"/><rect class="cls-7" x="593" y="410" width="6" height="29" transform="translate(388.89 -277.3) rotate(38.1)"/></svg>