<svg id="Layer_1" data-name="Layer 1" xmlns="http://www.w3.org/2000/svg" viewBox="0 0 768 1024"><defs><style>.cls-1{fill:#ff9500;}.cls-2{fill:#bf7000;}.cls-3{fill:none;}.cls-4{fill:#afd191;}.cls-5{fill:#5c8636;}.cls-6{fill:#7ab347;}</style></defs><title>EAMAIL-food-exportable</title><path class="cls-1" d="M224.85,459.58c-3-44.39,129.71-134.54,176.7-69.57,97.26,130.48,104.73,189.1,136.84,241.55C569.24,682,737.14,866.18,737,930.33c-48.1,26.05-263.9-123.47-299.83-173.16s-73.45-89.49-117.55-130.36C278.57,588.81,230.61,507.8,224.85,459.58Z"/><path class="cls-2" d="M319.58,626.81s30.28,21.76,63.74,23.75c-24.64,6.17-34.52,4.59-34.52,4.59Z"/><path class="cls-3" d="M208.67,365.69l.15.27h0Z"/><path class="cls-3" d="M201.73,242.19l.86,1.21-.86-1.21Z"/><path class="cls-3" d="M168.25,295.41c-8.28-14.1-16.53-27.87-24.63-41a115.7,115.7,0,0,0-35.32-.23,448.65,448.65,0,0,1,38.89,32.62C160,291.63,168.55,295.92,168.25,295.41Z"/><path class="cls-3" d="M227.85,326h0l-.95-1.36Z"/><path class="cls-3" d="M174.15,305.5c-.49-.83-7.81-5.31-18.46-10.61,9.12,8.82,18.17,18.08,27.05,27.59l1.48.43Q179.2,314.18,174.15,305.5Z"/><path class="cls-3" d="M195.38,233.23l-.26-.36.26.36Z"/><path class="cls-3" d="M213,212a11.91,11.91,0,0,1,2.12-1.4c-.73.44-1.43.91-2.12,1.4a23.76,23.76,0,0,0-6,8q8.86,13.25,18,26.87a83.85,83.85,0,0,1,3.27-11.17c-7.51-18.58-14.46-37.06-20.55-55-3.29,17.4-3.11,35.7-2.37,36.8l.56.83A41.19,41.19,0,0,1,213,212Z"/><path class="cls-3" d="M256.86,268.39c5.47,9.8,11,19.55,16.62,29.1-11-33.78-19.37-69.09-26-104.14-10.09,15.84-12.39,35.5-7.87,43.72,5.32,9.66,10.67,19.42,16.08,29.14a63.14,63.14,0,0,1,2.11-10.35A94.83,94.83,0,0,0,256.86,268.39Z"/><path class="cls-3" d="M167.15,191.91c-.06.25-.11.54-.16.83q7.39,10.69,15.49,22.21c-20.81-40.35-38.29-76.28-47.95-99.43-2,11.6-1.88,25.35-1.41,26.12l.9,1.46c.36-.61.73-1.22,1.14-1.84-.36.72-.68,1.42-1,2.12,8.27,13.36,19.57,30.23,32.73,49.26C167,192.41,167.07,192.15,167.15,191.91Z"/><path class="cls-3" d="M255.92,318.19l1.08,1.52h0Z"/><path class="cls-3" d="M261.5,326l2.9,4.09L261.5,326Z"/><path class="cls-3" d="M169.15,256.33c-5.36-10.83-10.28-21.14-14.62-30.69-.78-1.72-19.12-20.15-32.43-23,.81,7,1.82,13,2.23,13.5,8.49,10,17.92,21.62,27.87,34.33C163.87,252.87,169.46,256.94,169.15,256.33Z"/><path class="cls-3" d="M285,316.78l-.17-.29.17.29Z"/><path class="cls-3" d="M292.46,329.19l-1.87-3.07h0Z"/><path class="cls-3" d="M175.25,268.5c-.6-1.18-6.13-6.14-16.89-10.14,12.3,15.89,25.28,33.21,38.25,51C189.11,295.39,181.91,281.64,175.25,268.5Z"/><path class="cls-3" d="M242.7,269.9c-2.61-4.74-6.47-10.76-12.39-15.18l16.58,24.68C245.48,276.24,244.37,272.93,242.7,269.9Z"/><path class="cls-3" d="M235.06,252.07q-3.34-7.94-6.54-15.88a77.9,77.9,0,0,0-2.46,11.7C232.81,250,235.65,253.48,235.06,252.07Z"/><path class="cls-3" d="M202.38,288.83l1.22,1.8L201.17,287Z"/><path class="cls-3" d="M175.1,247q2.35,3.75,4.78,7.56-2.44-3.83-4.79-7.59Z"/><path class="cls-3" d="M168.24,235.88l0,0c-1.24-2-2.48-4.09-3.68-6.1Q166.39,232.82,168.24,235.88Z"/><path class="cls-3" d="M128.59,156.43c.07.08.15,0,.24-.25l-.76-.34Z"/><path class="cls-3" d="M224.67,159.71c-8.05,14.56-9.37,28.25-8.75,29.61,4.82,10.57,10,21.32,15.54,32.14,1,2,1.94-13.89,15.61-30l-.12-.61C246.65,189.25,236.76,174,224.67,159.71Z"/><path class="cls-3" d="M178.16,176.46c6.31,9.63,13,19.68,19.85,30,.88,1.31,2.31-14.45,8.14-30.55-4.57-13.69-8.6-27-12-39.72C173.28,153.89,176.81,174.41,178.16,176.46Z"/><path class="cls-3" d="M132,157.66a9.71,9.71,0,0,0,1.23,4.16q6.81,8,14,16.9c-3.14-6.1-6.07-11.9-8.75-17.34C138.21,161,135.72,159.48,132,157.66Z"/><path class="cls-3" d="M134.77,153.9c-.81-1.68-1.58-3.31-2.33-4.9a28.11,28.11,0,0,0-.6,4.5C133.85,154.06,135,154.33,134.77,153.9Z"/><path class="cls-3" d="M175.08,247q2.36,3.77,4.79,7.59-2.77-5-5.52-9.91A15.1,15.1,0,0,0,175.08,247Z"/><path class="cls-3" d="M168,233.42c-8-14.22-15.94-27.87-23.55-40.55.94,2,2,4,3,6.08l.9,1.77q1.25,2.44,2.58,5l.83,1.57q1.72,3.21,3.57,6.54l.8,1.42q1.53,2.73,3.13,5.52l1.17,2q1.8,3.1,3.68,6.28l.46.79c1.19,2,2.43,4.05,3.68,6.1C168.46,236.15,168.33,235.21,168,233.42Z"/><path class="cls-4" d="M134,143.11l.17.28c.29-.7.61-1.4,1-2.12C134.76,141.89,134.39,142.5,134,143.11Z"/><path class="cls-4" d="M140.95,185.07c8.39,4.65,13.72,8,13.46,7.55l-1.86-3.55-1.35-2.57c-1.38-2.64-2.73-5.24-4-7.78q-7.13-8.86-14-16.9a9.71,9.71,0,0,1-1.23-4.16c-1-.47-2-1-3.15-1.48-.09.23-.17.33-.24.25l-.52-.59c-2.89-1.28-6.18-2.61-9.57-3.78q3.22,4.67,6.57,9.76c1.22,1.86-8.55-1.89-21.87-1.89,21.32,2.67,28.25,11.76,29.6,13.91s2.7,4.31,4.07,6.53a48.23,48.23,0,0,1-2.1-12.28A130,130,0,0,0,140.95,185.07Z"/><path class="cls-4" d="M94.43,121.78a149.36,149.36,0,0,1,12.82,14.78c.66.86-26.05-6.84-25.38-5.95,2.67,0,28.82,10.48,29.54,11.46,1.84,2.5,3.73,5.16,5.65,7.91,2.53.39,4.94.9,7.12,1.43C113.25,139.15,103.18,129,94.43,121.78Z"/><path class="cls-4" d="M227.4,322.8l-2.07-3.53-2.22-3.79-3.59-6.15-2.31-4-3.6-6.22-2.16-3.74-4-7-1.7-3q-2.84-5-5.65-9.9l-.61-1.07-5-8.75-1.84-3.26L189,256l-2.07-3.7-3.36-6-2.07-3.72-3.33-6-1.91-3.45-3.62-6.59-1.48-2.69-1.9-3.5c1.73,10.14,3.9,19.92,5.07,24.3q2.75,4.93,5.52,9.91,3,4.66,6.06,9.42l2,3.06q2.14,3.28,4.32,6.59l2.33,3.52,4.25,6.38,2.34,3.49,2.44,3.61q5.57,8.25,11.28,16.59l.42.6q5.75,8.38,11.6,16.77l.95,1.36C228,326.2,227.83,325,227.4,322.8Z"/><path class="cls-4" d="M165.46,213.3h0l-.06-.12q-2-3.64-3.88-7.21L159.95,203l-2.12-4a178.64,178.64,0,0,0-15.08-10c.58,1.26,1.12,2.49,1.74,3.79C152.1,205.55,160,219.2,168,233.42A200.48,200.48,0,0,1,165.46,213.3Z"/><path class="cls-4" d="M132.44,149l-.67-1.43a49,49,0,0,0-2,5.36l2,.58A28.11,28.11,0,0,1,132.44,149Z"/><path class="cls-4" d="M265.56,429.61c-5.71-9.32-11.65-19.18-17.71-29.44-2.58-4.37-5.19-8.82-7.8-13.3L237.77,383q-3-5.17-6-10.41l-2.13-3.7q-4-6.9-7.9-13.89l-1.05-1.87q-3.43-6.1-6.84-12.23l-1.07-1.92c-.4-.72-11.59-6.74-26.37-12.26q5.5,9.57,10.94,19.11l.29.51q5.57,9.76,11,19.38l.16.27h0L216,378.59l2.25,4,2.72,4.78,1,1.81,2.45,4.31,1.08,1.9,2.88,5,.54.94,3.34,5.84.88,1.53,2.35,4.1,1.16,2,2.35,4.07.89,1.55,3.16,5.45.49.85,1.95,3.33A58.79,58.79,0,0,0,265.56,429.61Z"/><path class="cls-4" d="M89.86,274.53c11,0,24.19,3.38,36.87,7.92-1-1-2-2.09-3-3.11C112.87,276.56,101.17,274.53,89.86,274.53Z"/><path class="cls-4" d="M174.15,305.5q5,8.66,10.07,17.41c13.23,3.89,24.06,7.91,23.64,7.16l-.82-1.52q-5.28-9.62-10.43-19.19c-13-17.8-26-35.12-38.25-51a82.53,82.53,0,0,0-14.74-3.92c8.1,13.1,16.35,26.88,24.63,41,.3.51-8.2-3.77-21.06-8.59q4.26,4,8.5,8.07C166.34,300.19,173.66,304.67,174.15,305.5Z"/><path class="cls-4" d="M124.34,216.14c-.41-.48-1.42-6.54-2.23-13.5l-.26-.07.26.05c-1.07-9.16-1.77-19.86-.26-21.37-2.67,2.67-2.75,28.79-3.94,27.44-6.94-7.91-13.11-14.48-18.26-19.36,9.61,12.39,20,27.49,30.85,44.29,1.34,2.08-27.31.94-38,8.93,16-5.33,43.39-.45,44.07.64,1.19,1.88,2.39,3.83,3.58,5.74a82.25,82.25,0,0,1,12,1.53C142.25,237.76,132.83,226.12,124.34,216.14Z"/><path class="cls-4" d="M177.81,362.48a59.36,59.36,0,0,1,15.93,2.18l-1.52-2.16A44,44,0,0,0,177.81,362.48Z"/><path class="cls-4" d="M243.59,426.72l1.94,3.33h0Z"/><path class="cls-4" d="M186.4,326.68q5.5,9.57,10.94,19.11-5.44-9.53-10.94-19.11Z"/><path class="cls-4" d="M259.12,452.94,257,449.43h0Z"/><path class="cls-4" d="M147.19,286.82a233.59,233.59,0,0,0-23.5-7.48c1,1,2,2.08,3,3.11a272.7,272.7,0,0,1,29,12.44Q151.45,290.79,147.19,286.82Z"/><path class="cls-4" d="M214.5,376l1.49,2.63L208.82,366c.42.74-7.41-2.16-16.6-3.46l1.52,2.16C205.95,368.05,213.6,374.37,214.5,376Z"/><path class="cls-5" d="M261.5,326l2.9,4.09,1.75,2.47q4.52,6.38,8.94,12.65l2,2.81c3.06,4.34,6.08,8.65,9.05,12.89-9-17.29-18.11-35.8-27.07-54.93C259.77,312.66,260.6,319.4,261.5,326Z"/><path class="cls-5" d="M225.28,275.23l8.62,12.07,8.95,12.53,2.3,3.23,9.46,13.28,1.32,1.85,1.08,1.52c-.83-7.4-1.5-14.91-1.9-22.21q-4.14-9-8.21-18.1l-16.58-24.68a30.86,30.86,0,0,0-4.72-2.91A154,154,0,0,0,225.28,275.23Z"/><path class="cls-5" d="M206.53,248.93l4.69,6.59L213,258l9.31,13a132.84,132.84,0,0,1,1.9-19.89A33.25,33.25,0,0,0,206.53,248.93Z"/><path class="cls-5" d="M217.79,154.6A63.11,63.11,0,0,0,208,171.2c.4,1,.82,1.93,1.23,2.9C211.17,166.32,213.93,159.23,217.79,154.6Z"/><path class="cls-5" d="M201.8,130.61a54,54,0,0,0-7.44,3.66l.45,1.41A70.08,70.08,0,0,1,201.8,130.61Z"/><path class="cls-5" d="M224.89,247.56c0-.23.11-.45.16-.67Q215.93,233.3,207,220c-4.5,9.13-6.07,21.1-5.31,22.18l.86,1.21,3.1,4.36C213.86,245.8,220.21,246.31,224.89,247.56Z"/><path class="cls-5" d="M126.46,90.88c.1,3.78,2.85,12,7.63,23.58.53-1.93,1.1-3.82,1.73-5.6C131.74,101.68,128.54,95.59,126.46,90.88Z"/><path class="cls-5" d="M182.48,215l6.24,8.85,2.08,2.94,4.33,6.12.26.36c.74,1,3.82-7.21,10.57-14.85l-.56-.83c-.74-1.1-.91-19.4,2.37-36.8-.55-1.62-1.08-3.22-1.62-4.83-5.83,16.1-7.27,31.87-8.14,30.55-6.88-10.33-13.54-20.39-19.85-30-1.35-2.05-4.88-22.57,16-40.26l-.42-1.57c-19.41,11.82-22.52,31.26-23.55,29.67q-4.88-7.51-9.39-14.58c-1-1.54-6.48-19.67-8.64-47.76-.1-1.33,9.64-8.66,25.63-38-21.32,29.32-26,32.51-26,31.8-.46-8.21-.62-17.16-.31-26.7,0-1.17,10.36-21.09,21-26.42-8,2.67-20.78,20.72-20.72,19.63.4-7.15,1.06-14.6,2.06-22.3-10.66,32-.37,98.09-1.67,96-6.31-10.1-11.78-19.15-16.2-26.93a63.24,63.24,0,0,0-1.42,6.45C144.19,138.68,161.67,174.61,182.48,215Z"/><path class="cls-5" d="M273.48,297.5q5.66,9.61,11.3,19l.17.29c.29.46.2-8.68,3.25-22.08-7.61-17.16-15-35.56-21.62-55.21-.85-2.52,16.34-48.87,27.15-64.4-15.53,21.39-30.66,53.75-31.08,52.44q-6.08-19.18-11.14-39.86a58,58,0,0,0-4.09,5.7C254.11,228.41,262.51,263.72,273.48,297.5Z"/><path class="cls-5" d="M247,190.87l.12.61c1.3-1.53,2.72-3.07,4.26-4.59-3.75-15.49-7-31.58-9.56-48.28-.39-2.53,8-48,18.66-64-16,18.66-20,55.43-20.3,52.7a578.32,578.32,0,0,1-4.36-59.45c-.74,9.56-1,19.46-.86,29.64,0,.94-6.45-12.24-25.11-25.56,21.32,16,23.83,33.42,24,34.65,3.11,23.88,6.76,48.68,11.25,73.74.2,1.14-8.19-11.61-19.36-22.4-.34.59-.67,1.17-1,1.75C236.76,174,246.65,189.25,247,190.87Z"/><path class="cls-5" d="M215.12,149.27c2.79,2.79,5.57,5.83,8.25,8.93.35-.47.68-.94,1-1.42A74.1,74.1,0,0,0,215.12,149.27Z"/><path class="cls-5" d="M290.6,326.12l1.87,3.07,1.21,2,3.08,5,.63,1,3.61,5.88,1.26,2.05,2.38,3.86,1.36,2.2,2.33,3.77,1.25,2,2.33,3.75,1.28,2.06,2.09,3.36,1.54,2.48,2.31,3.71.86,1.38,3.09,5,2,3.26a38.09,38.09,0,0,0,2.2-10.83s.24.34.66,1c-11.54-19.94-24.14-43.22-36.25-69.67C289.86,315.63,290.08,325.23,290.6,326.12Z"/><path class="cls-4" d="M352.72,465.35l.49-.39h-.66Z"/><path class="cls-4" d="M206.15,175.92c.57-1.58,1.18-3.16,1.84-4.73-5.12-12.24-9.57-24.13-13.19-35.51l-.62.51C197.55,148.92,201.58,162.23,206.15,175.92Z"/><path class="cls-4" d="M228.32,235.71a66.91,66.91,0,0,1,2.79-6.49,52.56,52.56,0,0,0-2.6,7q3.21,7.94,6.54,15.88c.59,1.41-2.24-2.08-9-4.18,0,.14,0,.28,0,.41l4.31,6.41c5.92,4.43,9.78,10.44,12.39,15.18,1.67,3,2.78,6.34,4.19,9.5q4.06,9.12,8.21,18.1c-.63-11.42-.6-22.28.56-31.27-5.41-9.72-10.77-19.48-16.08-29.14-4.52-8.22-2.23-27.88,7.87-43.72-.12-.63-.25-1.26-.37-1.88-13.67,16.09-14.59,32-15.61,30-5.5-10.82-10.72-21.57-15.54-32.14-.62-1.36.7-15.05,8.75-29.61l-1.3-1.51c-8.5,11.66-11.66,21.71-12.18,20.52-.67-1.55-1.32-3.08-2-4.63-.55,2.18-1,4.41-1.46,6.66C213.86,198.65,220.81,217.14,228.32,235.71Z"/><path class="cls-4" d="M316.4,239.89c-17.07,18.49-24.69,39.45-28.19,54.81q1.73,3.91,3.49,7.74C294.27,284,300.87,258.52,316.4,239.89Z"/><path class="cls-4" d="M259.06,306c9,19.13,18.1,37.65,27.07,54.93,9.68,13.83,18.82,27.08,27.1,39.36l.79,1.17A61.83,61.83,0,0,0,325.08,382l-2-3.26-3.09-5-.86-1.38-2.31-3.71-1.54-2.48-2.09-3.36-1.28-2.06L309.56,357l-1.25-2L306,351.22l-1.36-2.2-2.38-3.86L301,343.12l-3.61-5.88-.63-1-3.08-5-1.21-2-1.86-3.06h0q-2.81-4.63-5.64-9.33h0l-.17-.29q-5.63-9.37-11.3-19c-5.62-9.56-11.15-19.31-16.62-29.1A323.78,323.78,0,0,0,259.06,306Z"/><path class="cls-4" d="M189.49,116.95c1.26,5.73,2.7,11.65,4.28,17.68l.59-.36C192.5,128.35,190.85,122.56,189.49,116.95Z"/><path class="cls-4" d="M257.77,181.25a73.2,73.2,0,0,0-6.43,5.64l.19.77A51.45,51.45,0,0,1,257.77,181.25Z"/><path class="cls-4" d="M236.45,143.94a82.83,82.83,0,0,0-12,12.84l1.24,1.19A69.92,69.92,0,0,1,236.45,143.94Z"/><path class="cls-4" d="M205.7,247.76l.83,1.16a33.25,33.25,0,0,1,17.67,2.23c.21-1.21.45-2.41.7-3.6C220.21,246.31,213.86,245.8,205.7,247.76Z"/><path class="cls-4" d="M207.77,180.75c.42-2.25.91-4.48,1.46-6.66-.41-1-.83-1.94-1.23-2.9-.66,1.57-1.27,3.15-1.84,4.73C206.68,177.53,207.22,179.13,207.77,180.75Z"/><path class="cls-4" d="M230.31,254.71,226,248.3c-.15,1.15-.29,2.32-.41,3.5A30.86,30.86,0,0,1,230.31,254.71Z"/><path class="cls-4" d="M194.8,135.68l-.45-1.41-.59.36.42,1.57Z"/><path class="cls-4" d="M285,316.78q2.83,4.71,5.64,9.33c-.52-.89-.74-10.49,1.1-23.68q-1.75-3.83-3.49-7.74C285.16,308.1,285.25,317.25,285,316.78Z"/><path class="cls-4" d="M225.67,158l-1.24-1.19c-.36.48-.7.95-1,1.42l1.3,1.51C225,159.13,225.32,158.55,225.67,158Z"/><path class="cls-4" d="M247.44,193.36a58,58,0,0,1,4.09-5.7l-.19-.77c-1.55,1.52-3,3.06-4.26,4.59C247.19,192.1,247.32,192.73,247.44,193.36Z"/><path class="cls-4" d="M338.82,404.08,337.53,402h0Z"/><path class="cls-4" d="M325.08,382l-2-3.26,2,3.26Z"/><path class="cls-6" d="M155.69,294.89a272.7,272.7,0,0,0-29-12.44c10.7,10.85,21,22.4,30.82,34.34a177.38,177.38,0,0,1,25.19,5.69C173.87,313,164.81,303.71,155.69,294.89Z"/><path class="cls-6" d="M243.09,425.88l-3.16-5.45-.89-1.55-2.35-4.07-1.16-2-2.35-4.1-.88-1.53L229,401.33l-.54-.94-2.88-5-1.08-1.9L222,389.13l-1-1.81-2.72-4.78-2.25-4L214.5,376c-.91-1.59-8.56-7.91-20.76-11.3,15.13,21.6,28.78,42.93,40.78,62.09a43.34,43.34,0,0,0,11,3.3l-1.94-3.33Z"/><path class="cls-6" d="M208.82,366l-.15-.27q-5.46-9.61-11-19.38l-.29-.51q-5.44-9.53-10.94-19.11a169.27,169.27,0,0,0-27.17-7.84q9.77,12,19,24.28c2.26,3-27-12.63-72.34-10,42.64,0,82.86,24.37,84.73,27l1.64,2.33C201.41,363.81,209.24,366.7,208.82,366Z"/><path class="cls-6" d="M123.69,279.34a233.63,233.63,0,0,1,23.5,7.48A448.68,448.68,0,0,0,108.3,254.2c-3.35.45-6.82,1-10.43,1.78,3.49,2.85,7,5.77,10.37,8.81.76.68-59.37-3.67-58.35-3.58,32,2.67,63.67,8.4,65.18,9.82Q119.42,275.09,123.69,279.34Z"/><path class="cls-6" d="M96.88,255.17c3.18-1,6.24-1.86,9.21-2.6a237.2,237.2,0,0,0-27.18-17.24c-1.19-.63-7.3-25.77-5.26-39.46-2.35,13.53-1.12,36.23-2.4,35.63a101,101,0,0,0-24.52-8.17,221.33,221.33,0,0,1,38.83,23.08c2,1.44-43.67-11.85-57-6.52,18.66-2.67,64.83,12.46,65.8,13.24S96,254.49,96.88,255.17Z"/><path class="cls-6" d="M354.26,469.33h0l0,0Z"/><path class="cls-6" d="M169.28,220.34h0l1.9,3.5,1.48,2.69,3.62,6.59,1.91,3.45,3.33,6,2.07,3.72,3.36,6L189,256l3.64,6.46,1.84,3.26,5,8.75.61,1.07q2.81,4.93,5.65,9.9l1.7,3,4,7,2.16,3.74,3.6,6.22,2.31,4,3.59,6.15,2.22,3.79,2.07,3.53h0c-1.5-7.85-5.67-29.13-5.11-51.75L213,258l-1.77-2.48-4.69-6.59-.83-1.16-3.1-4.36-.86-1.21h0c-.76-1.08.81-13,5.31-22.18a23.75,23.75,0,0,1,6-8,41.19,41.19,0,0,0-7.06,6.42c-6.75,7.64-9.84,15.88-10.57,14.85h0l-.26-.36-4.33-6.12-2.08-2.94L182.48,215Q174.4,203.47,167,192.75C166.06,198.12,167.42,209.42,169.28,220.34Z"/><path class="cls-6" d="M255.92,318.19l-1.32-1.85-9.46-13.28-2.3-3.23L233.9,287.3l-8.62-12.07h0c1.73,31.09,10.55,62.15,11.65,63.71l7.3,10.38,2.72,3.86,4.62,6.55,3.11,4.4,4.11,5.82,4.77,6.75,2.61,3.69c.79,1.11-5.59-28.6-9.17-60.68Z"/><path class="cls-6" d="M286.13,361c-3-4.24-6-8.55-9.05-12.89l-2-2.81q-4.43-6.28-8.94-12.65l-1.75-2.47L261.5,326c4.41,32.53,10.4,62.44,10.77,63l5.59,7.92,1.6,2.27,4.74,6.74,1.13,1.61,5.4,7.72,1.3,1.86,1.44,2.07,1.07-.59A85.16,85.16,0,0,0,314,401.48l-.79-1.17C304.95,388,295.81,374.79,286.13,361Z"/><path class="cls-6" d="M213,212c.69-.48,1.38-1,2.12-1.4A11.92,11.92,0,0,0,213,212Z"/><path class="cls-6" d="M79.8,162.75A58.52,58.52,0,0,1,87.86,164l1.15.27c16.4,3.94,35.76,14.08,49.76,22.41-.38-1.16-.74-2.29-1.06-3.38-10.48-5.67-24.61-12.59-38.59-16.82-.48-.15-3.44-3.37-1.74-10.22-1.88,6.76-.35,9.61-.59,9.54A82.15,82.15,0,0,0,79.8,162.75Z"/><path class="cls-6" d="M97.38,156.26c.15-.54.28-1.06.48-1.66C97.67,155.18,97.51,155.73,97.38,156.26Z"/><path class="cls-6" d="M128.07,155.84l.76.34c1.12.51,2.18,1,3.15,1.48,3.74,1.82,6.23,3.31,6.43,3.72,2.69,5.44,5.61,11.24,8.75,17.34,1.31,2.54,2.66,5.14,4,7.78l1.35,2.57,1.86,3.55c.26.48-5.07-2.9-13.46-7.55.57,1.31,1.18,2.66,1.8,4a178.62,178.62,0,0,1,15.08,10l2.12,4,1.57,2.94q1.91,3.56,3.88,7.21l.06.12h0c-.47-7.18-.31-14.76,1.47-20.64-13.16-19-24.46-35.9-32.73-49.26l-.17-.28-.9-1.46c-.47-.77-.57-14.52,1.41-26.12a63.29,63.29,0,0,1,1.42-6.45,29.65,29.65,0,0,1,1.89-5.12,43,43,0,0,0-2,4.89c-.63,1.78-1.2,3.67-1.73,5.6-2.83,10.33-4.32,21.64-4.76,20.88-2.59-4.42-4.72-8.3-6.32-11.58-.22-.44,1.51-9.13,1.51-14.46,0,5.33-2.55,12.25-2.74,11.82a31.61,31.61,0,0,1-2-5.62c.13,4.71,4.54,16.1,12,32.08l.67,1.43c.75,1.6,1.52,3.22,2.33,4.9.21.43-.92.17-2.93-.4l-2-.58c-1.59-.45-3.5-1-5.62-1.5s-4.6-1-7.12-1.43a56,56,0,0,0-8.54-.72,78.3,78.3,0,0,1,10,2.78C121.89,153.23,125.17,154.55,128.07,155.84Z"/><path class="cls-5" d="M309.39,495.44c0-.06.06-.14.09-.21l-.2.07Z"/><path class="cls-5" d="M257.77,255.88a63.14,63.14,0,0,0-2.11,10.35l1.21,2.17A94.83,94.83,0,0,1,257.77,255.88Z"/><path class="cls-5" d="M143.61,254.43c-1.15-1.86-2.29-3.67-3.43-5.5a114.29,114.29,0,0,0-34.1,3.64l2.21,1.63A115.7,115.7,0,0,1,143.61,254.43Z"/><path class="cls-5" d="M225.64,247.76l.41.13a77.9,77.9,0,0,1,2.46-11.7l-.19-.48A83.85,83.85,0,0,0,225,246.88Z"/><path class="cls-5" d="M154.53,225.64c4.34,9.55,9.26,19.86,14.62,30.69.3.61-5.28-3.46-16.94-5.87,2,2.59,4.08,5.21,6.15,7.89,10.76,4,16.29,9,16.89,10.14,6.66,13.15,13.86,26.9,21.36,40.87q5.13,9.54,10.43,19.19,3.38,6.16,6.8,12.31t6.84,12.23l1.05,1.87q3.94,7,7.9,13.89l2.13,3.7q3,5.24,6,10.41l2.27,3.91c2.62,4.49,5.22,8.94,7.8,13.3,6.06,10.25,12,20.12,17.71,29.44a91.24,91.24,0,0,0,27.91-10.41L292,417.13l-1.3-1.86-5.4-7.72-1.13-1.61-4.74-6.74-1.6-2.27c-4.63-6.57-9.42-13.34-14.3-20.24l-4.77-6.75-4.11-5.82-3.11-4.4-4.62-6.55-2.72-3.86-7.3-10.38q-4.54-6.47-9.08-13h0l-.94-1.36q-5.83-8.38-11.6-16.77l-.42-.6q-5.72-8.33-11.28-16.59l-1.22-1.8L201.17,287l-2.34-3.49-4.25-6.38-2.33-3.52q-2.18-3.31-4.32-6.59l-2-3.06q-3.08-4.75-6.06-9.42-2.43-3.81-4.78-7.56v0q-3.51-5.61-6.81-11l0,0q-1.86-3.06-3.65-6.07l-.46-.79q-1.89-3.18-3.68-6.28l-1.17-2q-1.6-2.79-3.13-5.52l-.8-1.42q-1.85-3.32-3.57-6.54l-.83-1.57q-1.33-2.51-2.58-5l-.9-1.77c-1-2.06-2-4.1-3-6.08-.62-1.3-1.16-2.53-1.74-3.79q-1.9-1.17-4-2.4c.1.32.19.62.3.94.37,1.11-17.24-9-27.9-11.71,8,2.67,29.5,16.33,29.72,16.94,2.36,6.54,5.35,13.95,8.86,22.05.79,1.82-11.8-9.54-27.66-12.29v0C135.41,205.49,153.75,223.92,154.53,225.64Z"/><path class="cls-5" d="M87.2,258.54Q92.71,257,97.87,256l-1-.81C93.75,256.16,90.53,257.27,87.2,258.54Z"/><path class="cls-5" d="M167.15,191.91c-.08.24-.15.5-.22.75l.06.09C167,192.46,167.09,192.17,167.15,191.91Z"/><path class="cls-5" d="M182.74,322.48c1.08,1.16,2.16,2.3,3.24,3.47l-1.76-3Z"/><path class="cls-5" d="M257,319.71h0l4.5,6.34h0Z"/><path class="cls-5" d="M143.17,317.17a87.57,87.57,0,0,1,16.06,1.67l-1.67-2.05C151.74,316,146.65,316,143.17,317.17Z"/><path class="cls-5" d="M134.77,168.09a48.23,48.23,0,0,0,2.1,12.28c.26.94.55,1.93.85,2.93l3.23,1.77A130,130,0,0,1,134.77,168.09Z"/><path class="cls-5" d="M168,233.42c.29,1.79.42,2.73.23,2.49q3.3,5.44,6.81,11a15.1,15.1,0,0,1-.73-2.32Q171.18,239,168,233.42Z"/><path class="cls-5" d="M186,325.95c-1.07-1.16-2.16-2.31-3.24-3.47a177.37,177.37,0,0,0-25.19-5.69l1.67,2.05a169.27,169.27,0,0,1,27.17,7.84Z"/><path class="cls-5" d="M106.09,252.57c-3,.74-6,1.6-9.21,2.6l1,.81c3.61-.75,7.08-1.33,10.43-1.78Z"/><path class="cls-5" d="M229.21,325.88l-1.81-3.08c.43,2.24.64,3.4.45,3.15q4.53,6.51,9.08,13-2.88-4.86-5.77-9.76Z"/><path class="cls-5" d="M165.46,213.3A200.48,200.48,0,0,0,168,233.42q3.14,5.56,6.31,11.22c-1.17-4.38-3.34-14.17-5.07-24.3l-3-5.53Z"/><path class="cls-5" d="M158.36,258.35c-2.07-2.68-4.12-5.3-6.15-7.89a82.25,82.25,0,0,0-12-1.53c1.14,1.83,2.28,3.64,3.43,5.5A82.53,82.53,0,0,1,158.36,258.35Z"/><path class="cls-5" d="M122.1,202.64v0l-.26-.05Z"/><path class="cls-5" d="M212.77,338.94l1.07,1.92q-3.42-6.15-6.8-12.31l.82,1.52c.41.75-10.42-3.27-23.64-7.16l1.76,3,.42.74C201.18,332.21,212.37,338.22,212.77,338.94Z"/><path class="cls-5" d="M186,325.95l.42.74h0Z"/><path class="cls-5" d="M225.64,247.76l-.59-.88c-.05.23-.11.45-.16.67Z"/><path class="cls-5" d="M225.59,251.8q-.69-.34-1.4-.65a132.84,132.84,0,0,0-1.9,19.89h0l2.63,3.68.35.49A154,154,0,0,1,225.59,251.8Z"/><path class="cls-5" d="M261.5,326c-.9-6.64-1.73-13.38-2.44-20q-2-4.24-4-8.52c.41,7.3,1.08,14.81,1.9,22.21Z"/><path class="cls-5" d="M231.11,229.22a66.91,66.91,0,0,0-2.79,6.49l.19.48A52.56,52.56,0,0,1,231.11,229.22Z"/><path class="cls-5" d="M256.86,268.39l-1.21-2.17c-1.16,9-1.19,19.86-.56,31.27q2,4.28,4,8.52A323.78,323.78,0,0,1,256.86,268.39Z"/><path class="cls-5" d="M226,248.3c0-.14,0-.28,0-.41l-.41-.13Z"/><path class="cls-5" d="M224.89,247.56c-.26,1.19-.49,2.39-.7,3.6q.72.31,1.4.65c.12-1.18.26-2.35.41-3.5l-.37-.54Z"/><path class="cls-5" d="M224.93,274.74l-2.63-3.68h0c-.56,22.62,3.61,43.91,5.11,51.75l1.81,3.08,1.94,3.3q2.89,4.9,5.77,9.76c-1.1-1.57-9.92-32.62-11.65-63.71Z"/><path class="cls-5" d="M261.5,326l-4.5-6.34c3.58,32.08,10,61.79,9.17,60.68l-2.61-3.69c4.88,6.9,9.67,13.67,14.3,20.24L272.27,389C271.9,388.49,265.91,358.58,261.5,326Z"/><path class="cls-5" d="M292,417.13l1.44,2.07h0Z"/><path class="cls-5" d="M166.28,214.82l3,5.52c-1.87-10.92-3.22-22.21-2.29-27.59l-.06-.09c-1.77,5.89-1.94,13.46-1.47,20.64h0Z"/><polygon class="cls-5" points="165.46 213.3 165.46 213.3 165.46 213.3 165.46 213.3"/><polygon class="cls-5" points="165.46 213.3 165.46 213.3 165.46 213.3 165.46 213.3"/><path class="cls-5" d="M165.46,213.3h0l.82,1.51Z"/><path class="cls-5" d="M140.95,185.07l-3.23-1.77c.33,1.09.69,2.22,1.06,3.38q2.07,1.23,4,2.4C142.13,187.73,141.51,186.37,140.95,185.07Z"/><path class="cls-5" d="M302.46,432.22l-.52-.77h0Z"/><path class="cls-5" d="M166.28,214.82l3,5.53h0Z"/><path class="cls-5" d="M229.21,325.88l-1.81-3.08h0Z"/><path class="cls-5" d="M224.93,274.74l.35.49h0Z"/><path class="cls-2" d="M339.86,396.45a123.17,123.17,0,0,0-7-16c-2.14-4.05-4-6.94-4.88-8.35-.42-.64-.66-1-.66-1a38.09,38.09,0,0,1-2.2,10.83h0A61.83,61.83,0,0,1,314,401.48a85.16,85.16,0,0,1-19.47,17.12l-1.07.59h0a91.24,91.24,0,0,1-27.91,10.41,58.79,58.79,0,0,1-20,.44h0a43.34,43.34,0,0,1-11-3.3c-.24-.11,1.87,4,5.17,8.28,3.87,5,8.66,10.7,11.11,12.68h-.12c.06,0,.13.07.19.11s.13.06.18.1a2.8,2.8,0,0,0,.9.51H252a12.33,12.33,0,0,0,5,1h0a22.68,22.68,0,0,0,2.87-.11c.58-.06,1.15-.12,1.76-.21a67.74,67.74,0,0,0,13.56-4c.64-.25,1.27-.48,1.93-.75l.2-.08a175,175,0,0,0,22.37-11.46l1.87-1.14.39-.25h0A191.56,191.56,0,0,0,322,417.33l0,0c.56-.45,1.08-.9,1.61-1.36,1.58-1.33,3.11-2.66,4.5-4q2.75-2.56,4.89-5a49.31,49.31,0,0,0,4.49-5h0C339.38,399.58,340.28,397.62,339.86,396.45Z"/><path class="cls-2" d="M530.76,618.19s3.91,36.42-17.84,66.71C532,671.08,549.31,648.43,548,645.73S530.76,618.19,530.76,618.19Z"/><path class="cls-2" d="M412.79,725.28s17.64,10.55,34.63,9.9c-8.7,12.11-15.82,14.35-15.82,14.35Z"/><path class="cls-2" d="M664.46,796s-9.35,13-20.17,38.32c3.71-2.68,16.35-17.64,32.61-21.18C677.32,813.09,664.46,796,664.46,796Z"/><path class="cls-2" d="M422.62,419.12s-1,34.93-6.9,50.86a99.5,99.5,0,0,0,24.13-25.55Z"/><path class="cls-2" d="M304.4,574.13c38,.25,57.86-14.11,77.72-28.47C380.29,557.06,333.48,593.43,304.4,574.13Z"/><path class="cls-2" d="M557.39,765.52c26.52-10.63,23.23-21.08,32.82-34.42C590.69,743.58,585.16,762.54,557.39,765.52Z"/></svg>