<svg id="Layer_1" data-name="Layer 1" xmlns="http://www.w3.org/2000/svg" viewBox="0 0 1024 768"><defs><style>.cls-1{fill:#ffcd0d;}.cls-2{fill:#ffeeab;}.cls-3{fill:#ffe88f;}.cls-4{fill:#ffd533;}</style></defs><title>EAMAIL-food-exportable</title><path class="cls-1" d="M739.83,608.93A46.41,46.41,0,0,1,814,571.73c-.91-97.95-3.13-206.62-8.52-213C763,308.57,231.58,139.45,216.87,139.25c-3.35,0-5.42,71.78-5.61,78.05-3.41,113.1-3,310.75,6.15,326,10.84,18,584.62,200.28,597.17,185.51,0,0,.08-34.82-.11-83.11a46.4,46.4,0,0,1-74.63-36.82Z"/><path class="cls-2" d="M429.7,35.07c-64.58,15.38-212.79,97.34-212.79,104.13,0,22.63,588.57,219.58,588.57,219.58C814.54,347.47,453.47,29.42,429.7,35.07Z"/><path class="cls-3" d="M814.46,644.93a54.32,54.32,0,1,1-.47-72.54c-.9-98.12-3.12-207.27-8.53-213.65C763,308.57,231.58,139.25,216.87,139.25c-1.93,0-3.63,20.22-4.94,51.61a21.31,21.31,0,0,1,9-1.86c14.38,0,30,11.66,35,26s-2.69,26-17.07,26c-10.15,0-20.94-5.81-28.15-14.29-3.1,114.3-2.25,301.69,6.69,316.57,10.84,18,584.62,200.28,597.17,185.51C814.58,728.86,814.66,693.64,814.46,644.93Z"/><path class="cls-1" d="M357.26,487.82c6.89,20-3.74,36.22-23.75,36.22s-41.8-16.22-48.69-36.22,3.74-36.22,23.75-36.22S350.38,467.82,357.26,487.82Z"/><path class="cls-1" d="M601.73,367.77c3.21,9.33-1.75,16.9-11.08,16.9s-19.51-7.57-22.72-16.9,1.75-16.9,11.08-16.9S598.51,358.43,601.73,367.77Z"/><path class="cls-1" d="M540.54,360.06c18.3,8.13,22.68,26,9.77,39.82s-38.2,18.5-56.5,10.36-22.68-26-9.77-39.82S522.24,351.93,540.54,360.06Z"/><path class="cls-1" d="M628.27,621.9c6.91,10.79-.42,21.13-16.37,23.1s-34.48-5.18-41.39-16,.42-21.13,16.37-23.1S621.36,611.11,628.27,621.9Z"/><path class="cls-4" d="M621.31,230.28c6.81,4.38,1.36,9.33-12.16,11s-30-.46-36.8-4.84-1.36-9.33,12.16-11S614.51,225.9,621.31,230.28Z"/><path class="cls-4" d="M452.51,74.9c10.29,7.66,4.13,17.15-13.76,21.2s-40.73,1.11-51-6.56-4.13-17.15,13.76-21.2S442.22,67.24,452.51,74.9Z"/></svg>