<svg id="Layer_1" data-name="Layer 1" xmlns="http://www.w3.org/2000/svg" viewBox="0 0 1024 768"><defs><style>.cls-1{fill:#e5c699;}.cls-2{fill:#cc8d33;}.cls-3{fill:#996a26;}.cls-4{fill:#d6a45c;}.cls-5{fill:#efddc2;}</style></defs><title>EAMAIL-food-exportable</title><path class="cls-1" d="M564.66,346.5,180.46,561.81s-13.28-85.26-77.79-28c-61.2,54.3,41.9,85.81,41.9,85.81S110.39,727.37,199.7,702.9C263.51,685.42,220.13,617,220.13,617L609.48,411.08Z"/><path class="cls-2" d="M891.9,182.89C760.89-51,435.33,67.69,312.74,433.25,189.09,450.79,289,563.72,317.07,527c-45,24.19,16.57,144.07,76.15,59.17C562.44,594.22,1102.2,558.38,891.9,182.89Z"/><path class="cls-3" d="M338,367.63Q324.28,399,312.74,433.25C189.09,450.79,289,563.72,317.07,527c-33.76,18.14-7.56,90.11,32.79,89.14-2.65-4.12-7.95-8.44-7.24-14.1C344,591,330,576,333.22,568.33c3.89-9.26-13.34-38.78-10.22-50.33,1.78-6.59-37.72-4.26-43-12-15-22,3.27-30.34-2-38-11-16,60.78-18.17,52.48-30-3.48-5-1.66-15.16,1.89-21.72C339,404,332,392,338,367.63Z"/><path class="cls-3" d="M393.22,586.2c140,6.63,533.69-16.75,546.3-237.71C911,368,935.53,390,903,398c-28.9,7.08-8.6,40.71-52,57-21,7.9-52,51-80,47-22.71-3.24-85,10-112,30-29.51,21.86-68.53,25.94-104,22-18-2-59.82.35-85,16C438,589.9,405,571.06,393.22,586.2Z"/><path class="cls-3" d="M763,105.79C730.64,93.05,697.44,84.62,682.4,103c20.71-5.52-69,5.27-41.36,9.09,13.81,1.91,37.23,2.61,52.79,10.74,12.62,6.59,22.13,13.73,42.05,7.6,21.77-6.69,23.11-3,43.05,6.64C789,142,789.84,150.56,807.8,146.6,830.63,141.57,753,112.21,763,105.79Z"/><path class="cls-3" d="M435,281c-33.7,8.52-39,53-56,79-17,18-12,33-17,53,12-6,26.63-18.53,44-21,14.09-2,36.39-2.4,49-19,13.78-18.14,17.19-44.2,39-48,11.07-1.93-11-90,9-126C469,209,430.61,292.06,435,281Z"/><path class="cls-3" d="M718.38,486c51.23,11.88,89.15-44.28,130-67.48,35.33-12.44,39-36.08,59.56-59.51-20.29-.24-43.46,26.16-68.54,17.46-20.34-7.06-26.1,23-54.56,36.57-31.1,14.85-31.34,43.75-63.32,33.76-16.22-5.07-56.59,37.22-100,42.12C641.22,518.32,731.93,474.13,718.38,486Z"/><path class="cls-4" d="M514.8,177.58C500.66,186.06,581.94,99.45,621,108c-12.3,10.42-14.07,22-24.72,40.74C589.11,146.52,543.75,160.22,514.8,177.58Z"/><path class="cls-5" d="M93.77,575c.83-24.15,21-48.72,42.5-49-4.78,4.14-7.17,6.21-7.1,11.6C121.69,538.3,110.3,544.34,93.77,575Z"/><path class="cls-5" d="M199.83,569.54c26.92-25.21,58.93-32.76,65.33-36.08C219.58,554.61,199.83,569.54,199.83,569.54Z"/><path class="cls-5" d="M194,580c30-23,78.6-43.68,85-47C235,558,194,580,194,580Z"/></svg>