<svg id="Layer_1" data-name="Layer 1" xmlns="http://www.w3.org/2000/svg" viewBox="0 0 768 1024"><defs><style>.cls-1{fill:#fffdf5;}.cls-2{fill:#ffca00;}.cls-3{fill:#c2a433;}.cls-4{fill:#ffdf66;}</style></defs><title>EAMAIL-food-exportable</title><path class="cls-1" d="M251.59,84.51C341,55.18,532.31-51.17,693.93,240.61s-79.84,292.67-60.48,428.15S592.27,988.24,379.31,898.05,22.86,777.66,48.08,556.13-46.69,182.33,251.59,84.51Z"/><path class="cls-2" d="M535.91,308.46c-23.65-51.35-58.15-82.31-102.54-92-56.13-12.26-112.87,13.9-135.43,33.27-63.76,54.71-46,131.16-29.69,171.86,21.18,52.94,61.28,78.52,91.19,90.66,32.42,13.15,64.09,15.47,87.68,11.76a89.3,89.3,0,0,0,22.24-6.22c34.35-15.31,62.81-45.58,76.13-81C560.06,398.1,556.75,353.72,535.91,308.46Zm-67.7,206.77c-45.28,20.18-158.12,3.41-197.36-94.68C250.48,369.63,242.48,301,299.76,251.86c37-31.71,168.85-82.81,233.6,57.78C582.77,416.93,522.46,491.05,468.21,515.23Z"/><path class="cls-3" d="M425.93,527a181.5,181.5,0,0,1-67-13.46c-30.16-12.24-70.6-38-92-91.44C250.52,381.07,232.59,304,297,248.67c22.77-19.55,80-45.95,136.65-33.58,44.84,9.8,79.67,41,103.51,92.79h0c21,45.6,24.33,90.36,9.62,129.43-13.45,35.74-42.19,66.31-76.88,81.77a90.22,90.22,0,0,1-22.59,6.33A138,138,0,0,1,425.93,527Zm-22.56-309.5c-44.17,0-84.66,19.94-102.7,35.42-61.78,53-44.39,127.45-28.52,167.1,20.63,51.56,59.71,76.49,88.86,88.32,30,12.19,76.21,19.15,106.63,5.6,33.34-14.86,61-44.25,73.91-78.61,14.17-37.64,10.9-80.9-9.46-125.11C509,260.13,475.5,230,432.47,220.57A136.24,136.24,0,0,0,403.38,217.51Zm64.83,297.72.57,1.28A74.49,74.49,0,0,1,458,520.29a74.41,74.41,0,0,0,10.78-3.78q4.79-2.14,9.42-4.65-4.62,2.51-9.42,4.65Zm-203.13-220c-20.47,45.86-7.58,95.71,4.47,125.83,21,52.48,60.76,77.85,90.41,89.88l2,.81-2-.81c-29.66-12-69.42-37.4-90.41-89.88C257.5,391,244.61,341.11,265.08,295.25ZM540.53,323c12,31.47,15.39,62.25,10,90.67C555.92,385.29,552.54,354.51,540.53,323Zm0,0h0ZM403.45,214.71c-39.44,0-76,15.61-96.79,30.09,26-18.06,76.43-37.88,126.41-27q5.15,1.12,10.12,2.64-5-1.51-10.12-2.64A138.78,138.78,0,0,0,403.45,214.71Z"/><path class="cls-2" d="M533.36,309.64C468.62,169,336.72,220.15,299.76,251.86,242.48,301,250.48,369.63,270.85,420.55c39.24,98.09,152.07,114.86,197.36,94.68C522.46,491.05,582.77,416.93,533.36,309.64Zm-66.29,203c-30,13.38-75.75,6.47-105.52-5.61-28.9-11.73-67.64-36.44-88.09-87.54-15.72-39.31-33-113.08,28.13-165.52,14.52-12.46,43.71-27.83,77.63-33.16a143.77,143.77,0,0,1,53,1.12c42.58,9.3,75.76,39.2,98.64,88.87,20.2,43.86,23.46,86.74,9.42,124C527.42,468.86,500.07,498,467.07,512.66Z"/><path class="cls-3" d="M425.81,524.22A176.78,176.78,0,0,1,360,511c-29.66-12-69.42-37.4-90.41-89.88-16.14-40.35-33.8-116.13,29.3-170.28,22.37-19.19,78.59-45.11,134.22-33,43.94,9.6,78.11,40.29,101.56,91.22h0c20.68,44.91,24,88.92,9.54,127.27-13.2,35.05-41.38,65-75.39,80.19C458.19,521.23,443.23,524.22,425.81,524.22Zm-53.15-11.67c29.42,9.39,68.28,13.3,95,1.4,33.34-14.86,61-44.25,73.91-78.61,14.17-37.64,10.9-80.9-9.46-125.11h0C509,260.13,475.5,230,432.47,220.57q-4.68-1-9.34-1.68,4.72.68,9.34,1.69c43,9.4,76.55,39.56,99.61,89.65,20.36,44.2,23.63,87.46,9.46,125.11-12.94,34.37-40.56,63.76-73.91,78.61C440.94,525.84,402.08,521.93,372.66,512.55Zm30.67-292.24a153.94,153.94,0,0,0-23.89,1.91c-34.93,5.49-63.27,21.12-76.93,32.84C242.05,306.93,259.17,380,274.76,419c20.26,50.65,58.67,75.14,87.31,86.76,29.51,12,74.77,18.84,104.42,5.63h0c32.67-14.56,59.75-43.36,72.42-77,13.9-36.92,10.65-79.44-9.39-122.94-22.68-49.25-55.53-78.88-97.66-88.08A133.74,133.74,0,0,0,403.33,220.31ZM372.61,512.53h0Zm0,0h0Zm0,0h0Zm-35.41-16.06h0Zm-.06,0h0Zm-.05,0,0,0Zm-.06,0,0,0Zm-.06,0,0,0Zm-69-87.72c1.39,4.07,2.82,7.9,4.24,11.45a154.36,154.36,0,0,0,64.73,76.27A154.35,154.35,0,0,1,272.16,420C270.73,416.48,269.3,412.65,267.91,408.58Zm0,0h0Zm36.86-158.93c-1.47,1.11-2.83,2.21-4.09,3.29-18.85,16.18-30.33,34.35-36.73,52.92,6.4-18.57,17.88-36.74,36.74-52.92Q302.55,251.32,304.77,249.64Z"/><path class="cls-2" d="M534.38,300c-24.08-52.28-59-83.76-103.83-93.55a151.34,151.34,0,0,0-55.74-1.17c-35.7,5.61-66.43,21.79-81.72,34.91-64.33,55.2-46.17,132.85-29.61,174.23,21.52,53.8,62.3,79.81,92.72,92.15,31.34,12.72,79.47,20,111.08,5.91,34.74-15.48,63.53-46.11,77-81.92C559.07,391.33,555.64,346.18,534.38,300Z"/><path class="cls-4" d="M320.62,270.47c-67.37,112.28,28.07,199.3,78.6,210.53C348.69,430.47,303.78,388.36,320.62,270.47Z"/></svg>