<svg id="Layer_1" data-name="Layer 1" xmlns="http://www.w3.org/2000/svg" viewBox="0 0 768 1024"><defs><style>.cls-1{fill:#fffdf5;}.cls-2{fill:#cb0000;}.cls-3{fill:#980000;}.cls-4{fill:#d53333;}</style></defs><title>EAMAIL-food-exportable</title><path class="cls-1" d="M260.25,295.32l413.12,680.5c5.85,9.64,14.17,5.73,23.8-.12s16.94-11.43,11.09-21.06L295.15,274.14Z"/><circle class="cls-2" cx="244.81" cy="221.1" r="179.63" transform="translate(-75.93 144.01) rotate(-28.57)"/><path class="cls-3" d="M388.58,101c-12.71,2.27-54.13,71.32-158.11,127.94-100.39,54.67-159,49.42-162.3,60.49s26.72,58.08,34.52,59.36,104.38-27.18,162.88-55.6C350,252.12,419.2,164.4,422.12,157.62S401.29,98.7,388.58,101Z"/><path class="cls-4" d="M201.57,81.94C236.43,86.2,250.45,69.27,340,122.77,313.32,90.82,264.48,52.34,201.57,81.94Z"/></svg>