<svg id="Layer_1" data-name="Layer 1" xmlns="http://www.w3.org/2000/svg" viewBox="0 0 1024 769"><defs><style>.cls-1{fill:#ff9500;}.cls-2{fill:#ffeacc;}.cls-3{fill:#ffbf66;}.cls-4{fill:#fa3;}</style></defs><title>EAMAIL-food-exportable</title><path class="cls-1" d="M40,195H982s-7.36,452.6-488.17,452.6C70.66,647.6,40,195,40,195Z"/><path class="cls-2" d="M67,195H946.65S897.37,586.27,493.83,586.27C127.09,586.27,67,195,67,195Z"/><path class="cls-3" d="M67,195c180.3,603.47,808.3,401.09,879.66,0-.22,0-39.47,401.09-452.82,401.09C127.09,596.09,67,195,67,195Z"/><path class="cls-4" d="M136.9,272.27c46.74,6.9,345.3-77.27,334.85-77.27s-365.09-.7-365.52,0C92.74,217.08,136.9,272.27,136.9,272.27Z"/><path class="cls-4" d="M879,283.31C832.22,290.21,555.75,195,566.2,195s338.23-.7,338.66,0C918.35,217.08,879,283.31,879,283.31Z"/><path class="cls-4" d="M266.91,464.84c36.8,0,221.18-228.71,204.84-246.54-13.49-14.72-305.22,62.94-314,74.82C136.9,321.34,244.84,464.84,266.91,464.84Z"/><path class="cls-4" d="M493.83,542.12c13.49-27,34.65-302.62,11-307.87-22.08-4.91-196.2,225.69-197.48,240.41C304.94,502.87,479.6,570.58,493.83,542.12Z"/><path class="cls-4" d="M518.36,539.66c-9.76-18.55.92-304,19.63-305.41,15.95-1.23,172.17,227.1,169.27,241.63C701.12,506.55,530.63,563,518.36,539.66Z"/><path class="cls-4" d="M736.69,462.39c-36.8,0-181.93-225-165.59-242.86C584.59,204.81,845.2,292.29,854,304.16,874.83,332.38,758.77,462.39,736.69,462.39Z"/></svg>