<svg id="Layer_1" data-name="Layer 1" xmlns="http://www.w3.org/2000/svg" viewBox="0 0 768 1024"><defs><style>.cls-1{fill:#cb0000;}.cls-2{fill:#980000;}.cls-3{fill:#003902;}.cls-4{fill:#004c03;}.cls-5{fill:#003f10;}.cls-6{fill:#c2ac33;}.cls-7{fill:#d53333;}</style></defs><title>EAMAIL-food-exportable</title><path class="cls-1" d="M693.52,308.18c-12.61-52.83-86.44-77.09-144.28-53.39,0,0-64-20.72-108.73,2.59,5.21,3,10.28,6.15,15.2,9.43,12.2,8.13,20.82,23.52,26.55,44.17,47.47-41,130.41-38.36,172.15-1.45,92.11,81.43-22.69,558-58.73,608.7a45.38,45.38,0,0,1-8.88,9c20.09-6.39,34.81-21.84,42.59-46.33C678.56,726,729.86,460.35,693.52,308.18Z"/><path class="cls-2" d="M467.54,273.47c-6.67-9.34-18.69-16-27-16.1,5.21,3,10.28,6.15,15.2,9.43,12.2,8.13,20.82,23.52,26.55,44.17C479.56,292.16,474.22,282.81,467.54,273.47Z"/><path class="cls-2" d="M681.12,332.2c-24.74-51.81-124.39-88.62-194.89-34.71-22.69,17.35-32,53.39-32,53.39,30.7-80.09,147.87-87.67,200.23-41.38,92.11,81.43-22.69,558-58.73,608.7a45.38,45.38,0,0,1-8.88,9c20.89-17,26.48-43.07,34.24-66.35C673.11,704.63,723.84,421.64,681.12,332.2Z"/><path class="cls-1" d="M482.27,311c-5.73-20.65-14.35-36-26.55-44.17-4.92-3.28-10-6.44-15.2-9.43C392.73,230,333.61,217.44,275.4,266.79c0,0-85.45-26.83-147.43,31.45,58.83-23.2,140.44,4.25,185.77,49.85a143.41,143.41,0,0,0-66.44,46.85c-80.49,101-19.75,358,43.95,483.14,53.84-3.59,107.89-27.06,121.07-49.31C438.27,785,518.65,442,482.27,311Z"/><path class="cls-2" d="M128.49,298.83c58.83-23.2,143.93,3.66,189.25,49.26C283.33,298.83,185.89,265.46,128.49,298.83Z"/><path class="cls-1" d="M196.36,852.8c-59-53.39-175.13-436.47-76.81-546,2.74-3.06,5.55-5.91,8.41-8.6a99,99,0,0,0-36.42,24.61c-83.89,89.87,38.32,568.95,79,616,24.53,28.4,106.49,40.57,163.17.89-13.21-11.4-27.92-33.11-42.47-61.71C255.52,880.46,219.89,874.1,196.36,852.8Z"/><path class="cls-1" d="M247.29,394.94a143.41,143.41,0,0,1,66.44-46.85C268.41,302.49,186.8,275,128,298.25c-2.85,2.68-5.66,5.54-8.41,8.6-98.32,109.49,17.81,492.57,76.81,546,23.53,21.3,59.15,27.66,94.87,25.28C227.54,752.93,166.8,495.92,247.29,394.94Z"/><path class="cls-3" d="M318,356.23C285.81,401.17,500.37,372.4,492,342.73c-5-17.63-32.44-36.46-77.06-36-30-7.93-107.1-1.67-136.91,13.44C260.87,322.59,322.86,349.51,318,356.23Z"/><path class="cls-4" d="M271.32,310.85c-4,50.73,208.24,37.38,220.67,7.86,6.22-14.77.92-29.21-43.13-33.22-52.06-10.68-112.39-11.26-138.83,4C294.87,292,271.95,302.87,271.32,310.85Z"/><path class="cls-5" d="M286,313.52c-2.19,13.15,31.42,18.39,60.07,17.35,42.72,4,69.9,3.21,94.78,0,25.36-2.67,61.4-16,32-33.37-4-2.35-19.71-8.84-24-12-13-9.56-19.79-102.65,20-162.85-7.81.19-24.09-61.79-31.82-61-64.33,39.45-95,203.79-123,235.83C290,306.84,287.34,305.51,286,313.52Z"/><path class="cls-6" d="M434.17,99.94c46.72,20,14.68,52.06,36,21.36-7.81.19-24.09-61.79-31.82-61-10.58,7.55-17.57,11.57-21.57,18.24C416.82,91.93,430.74,98.46,434.17,99.94Z"/><path class="cls-7" d="M105.79,332.2c-10.94,16.91,38.75,37.22,68.08,34.71,46.72-4,77.35-24.35,54.73-44.05C187.22,286.82,120.48,309.51,105.79,332.2Z"/><path class="cls-2" d="M248.62,396.28c19.19-24.08,50.81-39.77,74.75-48.06-17.05-3.87-80.09,10.68-114.8,58.73-72,99.66,28,467.2,126.46,534.17C264,879.85,149.74,520.33,248.62,396.28Z"/><path class="cls-1" d="M654.43,309.51C602.07,263.22,484.9,270.8,454.2,350.89c0,0-27.49-9.89-64.38-12.09-23.15-1.38-50,.26-76.09,9.29a143.41,143.41,0,0,0-66.44,46.85C148.41,519,262.67,878.51,333.71,939.79c1,.88,2,1.7,3,2.45,65.05,49.1,207.18,18.88,250.08-15.07a45.38,45.38,0,0,0,8.88-9C631.73,867.49,746.53,390.94,654.43,309.51Z"/><path class="cls-7" d="M276.66,404.29c-9.38,17.82,25.9,47.43,54.73,53.39,63.42,13.13,138.83-26.7,113.46-70.75C410.21,326.77,303.35,353.56,276.66,404.29Z"/><path class="cls-7" d="M482.23,337.54C469,352.76,511.58,391.77,541,393.61c64.07,4,132.15-25.36,109.46-61.4C613.43,273.45,516.93,297.5,482.23,337.54Z"/><path class="cls-4" d="M414.15,157.34c-23.24,13.14-21.36,97.45-74.75,150.84-14.92,14.92,102.79,8,92.11-4S402.14,245.44,414.15,157.34Z"/><path class="cls-7" d="M250,480.37c-36,74.75,14.68,285.66,94.78,431.16C247.29,631.21,236.61,571.15,250,480.37Z"/></svg>